<?xml version="1.0" encoding="UTF-8"?>
<svg width="752pt" height="752pt" version="1.1" viewBox="0 0 752 752" xmlns="http://www.w3.org/2000/svg">
 <g>
  <path d="m450.82 491.62c0 22.539 18.27 40.809 40.809 40.809s40.809-18.27 40.809-40.809-18.27-40.809-40.809-40.809-40.809 18.27-40.809 40.809z"/>
  <path d="m450.82 260.38c0 22.539 18.27 40.809 40.809 40.809s40.809-18.27 40.809-40.809c0-22.539-18.27-40.809-40.809-40.809s-40.809 18.27-40.809 40.809z"/>
  <path d="m219.57 376c0 22.539 18.27 40.809 40.809 40.809s40.809-18.27 40.809-40.809-18.27-40.809-40.809-40.809-40.809 18.27-40.809 40.809z"/>
  <path d="m219.57 260.38c0 22.539 18.27 40.809 40.809 40.809 22.539 0 40.809-18.27 40.809-40.809 0-22.539-18.27-40.809-40.809-40.809-22.539 0-40.809 18.27-40.809 40.809z"/>
  <path d="m219.57 491.62c0 22.539 18.27 40.809 40.809 40.809 22.539 0 40.809-18.27 40.809-40.809s-18.27-40.809-40.809-40.809c-22.539 0-40.809 18.27-40.809 40.809z"/>
  <path d="m233.63 162.89c-38.988 0-70.742 31.754-70.742 70.742v284.74c0 38.984 31.754 70.738 70.742 70.738h284.74c38.984 0 70.738-31.754 70.738-70.742v-284.74c0-38.984-31.754-70.738-70.742-70.738h-284.74zm0 12.875h284.74c32.039 0 57.867 25.828 57.867 57.867v284.74c0 32.039-25.828 57.867-57.867 57.867h-284.74c-32.039 0-57.867-25.828-57.867-57.867v-284.74c0-32.039 25.828-57.867 57.867-57.867z"/>
  <path d="m450.82 376c0 22.539 18.27 40.809 40.809 40.809s40.809-18.27 40.809-40.809-18.27-40.809-40.809-40.809-40.809 18.27-40.809 40.809z"/>
 </g>
</svg>
